<svg xmlns="http://www.w3.org/2000/svg" width="88" height="58" viewBox="0 0 88 58">
  <g id="Group_33" data-name="Group 33" transform="translate(-1024 -5633)">
    <rect id="Rectangle_35" data-name="Rectangle 35" width="88" height="58" transform="translate(1024 5633)" fill="none" />
    <g id="XMLID_1_" transform="translate(1045 5634)">
      <path id="XMLID_3_" d="M46.8,325.6v8.947c0,6.1,10.238,11.441,22.882,11.441s22.882-5.338,22.882-11.441V325.6Z" transform="translate(-46.8 -289.987)" fill="#95a5a6" />
      <ellipse id="XMLID_4_" cx="22.882" cy="10.15" rx="22.882" ry="10.15" transform="translate(0 25.463)" fill="#bdc3c7" />
      <path id="XMLID_5_" d="M46.975,406.6a4.628,4.628,0,0,0-.175,1.29c0,5.589,10.238,10.15,22.882,10.15s22.882-4.561,22.882-10.15a4.628,4.628,0,0,0-.175-1.29c-1.378,4.813-11.014,8.86-22.707,8.86S48.353,411.424,46.975,406.6Z" transform="translate(-46.799 -362.128)" fill="#7f8c8d" />
      <path id="XMLID_6_" d="M46.8,209.2v8.947c0,6.1,10.238,11.441,22.882,11.441s22.882-5.338,22.882-11.441V209.2Z" transform="translate(-46.8 -186.319)" fill="#95a5a6" />
      <ellipse id="XMLID_7_" cx="22.882" cy="10.15" rx="22.882" ry="10.15" transform="translate(0 12.731)" fill="#bdc3c7" />
      <path id="XMLID_8_" d="M46.975,290.2a4.628,4.628,0,0,0-.175,1.29c0,5.589,10.238,10.15,22.882,10.15s22.882-4.561,22.882-10.15a4.628,4.628,0,0,0-.175-1.29c-1.378,4.824-11,8.947-22.707,8.947S48.353,295.024,46.975,290.2Z" transform="translate(-46.799 -258.459)" fill="#7f8c8d" />
      <path id="XMLID_9_" d="M46.8,92.8v8.947c0,6.1,10.238,11.44,22.882,11.44s22.882-5.338,22.882-11.44V92.8Z" transform="translate(-46.8 -82.65)" fill="#95a5a6" />
      <path id="XMLID_10_" d="M46.975,174.6a4.628,4.628,0,0,0-.175,1.29c0,5.5,10.238,10.15,22.882,10.15s22.882-4.561,22.882-10.15a4.628,4.628,0,0,0-.175-1.29c-1.378,4.813-11.014,8.86-22.707,8.86S48.353,179.413,46.975,174.6Z" transform="translate(-46.799 -155.503)" fill="#7f8c8d" />
      <path id="XMLID_11_" d="M256,324.888v20.3c12.644,0,22.882-5.338,22.882-11.44V324.8H256Z" transform="translate(-233.118 -289.275)" fill="#bdc3c7" />
      <path id="XMLID_12_" d="M256,232v20.3c12.644,0,22.882-4.561,22.882-10.15S268.644,232,256,232Z" transform="translate(-233.118 -206.625)" fill="#ecf0f1" />
      <path id="XMLID_13_" d="M256,209.2v20.3c12.644,0,22.882-5.163,22.882-11.441V209.2Z" transform="translate(-233.118 -186.319)" fill="#bdc3c7" />
      <path id="XMLID_14_" d="M278.707,290.2c-1.378,5.075-11,8.947-22.707,8.947v2.581c12.644,0,22.882-4.561,22.882-10.15A6.578,6.578,0,0,0,278.707,290.2Z" transform="translate(-233.118 -258.459)" fill="#95a5a6" />
      <path id="XMLID_15_" d="M256,116.4v20.3c12.644,0,22.882-4.561,22.882-10.15S268.644,116.4,256,116.4Z" transform="translate(-233.118 -103.669)" fill="#ecf0f1" />
      <path id="XMLID_16_" d="M256,92.8v20.388c12.644,0,22.882-5.163,22.882-11.44V92.8Z" transform="translate(-233.118 -82.65)" fill="#bdc3c7" />
      <path id="XMLID_17_" d="M278.707,174.6c-1.378,4.988-11.014,8.86-22.707,8.86v2.581c12.644,0,22.882-4.561,22.882-10.15A5.107,5.107,0,0,0,278.707,174.6Z" transform="translate(-233.118 -155.503)" fill="#95a5a6" />
      <path id="XMLID_18_" d="M278.707,406.6c-1.378,4.813-11.014,8.86-22.707,8.86v2.581c12.644,0,22.882-4.561,22.882-10.15A4.627,4.627,0,0,0,278.707,406.6Z" transform="translate(-233.118 -362.128)" fill="#95a5a6" />
      <ellipse id="XMLID_19_" cx="22.882" cy="10.15" rx="22.882" ry="10.15" transform="translate(0 0)" fill="#bdc3c7" />
    </g>
  </g>
</svg>
