<svg xmlns="http://www.w3.org/2000/svg" width="88" height="58" viewBox="0 0 88 58">
  <g id="Group_37" data-name="Group 37" transform="translate(-109 -5633)">
    <rect id="Rectangle_31" data-name="Rectangle 31" width="88" height="58" transform="translate(109 5633)" fill="none" />
    <g id="XMLID_1_" transform="translate(128 5634)">
      <path id="XMLID_11_" d="M126.992,191.106,122.5,140.7h49.361l-4.492,50.387L147.142,196.7Z" transform="translate(-122.5 -140.7)" fill="#e44d26" />
      <path id="XMLID_10_" d="M250,209.6l16.337-4.53L270.189,162H250Z" transform="translate(-225.32 -157.877)" fill="#f16529" />
      <path id="XMLID_9_" d="M185.405,206.5h-8.188l-.561-6.33h8.75V194H169.9l.155,1.646,1.51,17.033h13.841Z" transform="translate(-160.725 -183.683)" fill="#ebebeb" />
      <path id="XMLID_8_" d="M193.55,313.274l-.019.019-6.891-1.878-.445-4.917H180l.852,9.7,12.679,3.523.019-.019Z" transform="translate(-168.869 -274.405)" fill="#ebebeb" />
      <path id="XMLID_3_" d="M249.9,258.6v6.175h7.607l-.716,8.014-6.891,1.858v6.446l12.658-3.523.1-1.045,1.452-16.26.155-1.665Z" transform="translate(-225.239 -235.778)" fill="#fff" />
      <path id="XMLID_2_" d="M249.9,194v6.175h14.924l.135-1.394.271-3.136.155-1.646Z" transform="translate(-225.239 -183.683)" fill="#fff" />
    </g>
  </g>
</svg>
