<svg xmlns="http://www.w3.org/2000/svg" width="88" height="58" viewBox="0 0 88 58">
  <g id="Group_36" data-name="Group 36" transform="translate(-291 -5633)">
    <rect id="Rectangle_32" data-name="Rectangle 32" width="88" height="58" transform="translate(291 5633)" fill="none" />
    <g id="js" transform="translate(307 5634)">
      <path id="パス_4" data-name="パス 4" d="M6,62V6H62V62Z" transform="translate(-6 -6)" fill="#ffd600" />
      <path id="パス_5" data-name="パス 5" d="M37.43,39.029c1.076,1.75,2.246,3.424,4.725,3.424,2.081,0,3.173-1.034,3.173-2.466,0-1.713-1.129-2.321-3.419-3.318l-1.255-.535c-3.624-1.537-6.032-3.463-6.032-7.53,0-3.749,2.868-6.6,7.35-6.6a7.434,7.434,0,0,1,7.143,4l-3.908,2.5a3.415,3.415,0,0,0-3.232-2.142,2.18,2.18,0,0,0-2.4,2.142c0,1.5.933,2.106,3.088,3.033l1.255.535c4.27,1.818,6.678,3.675,6.678,7.851,0,4.5-3.553,6.964-8.322,6.964a9.176,9.176,0,0,1-8.789-5.239Zm-18.025.128a4.248,4.248,0,0,0,3.7,2.494c1.646,0,2.593-.65,2.593-3.178V22h5.188V39.267c0,5.238-3.038,7.621-7.474,7.621a9.1,9.1,0,0,1-8.081-5.239Z" transform="translate(-0.815 2.889)" fill="#000001" />
    </g>
  </g>
</svg>
