<svg xmlns="http://www.w3.org/2000/svg" xmlns:xlink="http://www.w3.org/1999/xlink" width="88" height="58" viewBox="0 0 88 58">
  <defs>
    <clipPath id="clip-path">
      <path id="path3446" d="M14.4-362.079c0,12.272,18.912,22.22,42.24,22.22h0c23.328,0,42.24-9.948,42.24-22.22h0c0-12.271-18.912-22.22-42.24-22.22h0c-23.328,0-42.24,9.948-42.24,22.22" transform="translate(-14.4 384.299)" />
    </clipPath>
    <radialGradient id="radial-gradient" cx="0.628" cy="0.8" r="1.248" gradientTransform="translate(-0.009 0.511) scale(0.526 1)" gradientUnits="objectBoundingBox">
      <stop offset="0" stop-color="#aeb2d5" />
      <stop offset="0.3" stop-color="#aeb2d5" />
      <stop offset="0.75" stop-color="#484c89" />
      <stop offset="1" stop-color="#484c89" />
    </radialGradient>
    <clipPath id="clip-path-2">
      <path id="path3470" d="M0-405H88v49.5H0Z" transform="translate(0 405)" />
    </clipPath>
  </defs>
  <g id="Group_35" data-name="Group 35" transform="translate(-510 -5633)">
    <rect id="Rectangle_33" data-name="Rectangle 33" width="88" height="58" transform="translate(510 5633)" fill="none" />
    <g id="g3438" transform="translate(510 5637)">
      <g id="g3440" transform="translate(1.76 2.53)">
        <g id="g3442" transform="translate(0 0)" clip-path="url(#clip-path)">
          <g id="g3448">
            <g id="g3450">
              <path id="path3462" d="M14.4-362.079c0,12.272,18.912,22.22,42.24,22.22h0c23.328,0,42.24-9.948,42.24-22.22h0c0-12.271-18.912-22.22-42.24-22.22h0c-23.328,0-42.24,9.948-42.24,22.22" transform="translate(-14.4 384.299)" fill="url(#radial-gradient)" />
            </g>
          </g>
        </g>
      </g>
      <g id="g3464">
        <g id="g3466" clip-path="url(#clip-path-2)">
          <g id="g3472" transform="translate(3.41 4.18)">
            <path id="path3474" d="M-291.51-295.462c22.417,0,40.59-9.21,40.59-20.57s-18.173-20.57-40.59-20.57-40.59,9.21-40.59,20.57,18.173,20.57,40.59,20.57" transform="translate(332.1 336.603)" fill="#777bb3" />
          </g>
        </g>
      </g>
      <g id="g3476">
        <g id="g3478" clip-path="url(#clip-path-2)">
          <g id="g3484" transform="translate(14.616 14.467)">
            <path id="path3486" d="M-72.485-92.167a6.737,6.737,0,0,0,4.09-1.01,5.466,5.466,0,0,0,1.768-3.415c.291-1.5.18-2.544-.329-3.109s-1.646-.869-3.345-.869h-2.946l-1.633,8.4ZM-82.12-81.816a.458.458,0,0,1-.354-.167.458.458,0,0,1-.1-.379l4.328-22.267a.458.458,0,0,1,.45-.371h9.328c2.931,0,5.113.8,6.485,2.366s1.8,3.785,1.265,6.557a10.466,10.466,0,0,1-1.122,3.118A10.44,10.44,0,0,1-63.9-90.372a9.056,9.056,0,0,1-3.4,2.036,15.388,15.388,0,0,1-4.667.6H-75.74l-1.079,5.549a.458.458,0,0,1-.45.371Z" transform="translate(82.578 105)" />
          </g>
          <g id="g3488" transform="translate(14.158 14.009)">
            <path id="path3490" d="M-73.022-38.4h2.568c2.05,0,2.763.45,3,.718.4.445.477,1.384.219,2.714a5.039,5.039,0,0,1-1.6,3.139,6.319,6.319,0,0,1-3.81.915h-1.839Zm4.4-5.347h-9.328a.917.917,0,0,0-.9.742l-4.328,22.267a.917.917,0,0,0,.192.758.917.917,0,0,0,.707.334h4.851a.917.917,0,0,0,.9-.742l1.006-5.178h3.4a15.836,15.836,0,0,0,4.809-.623,9.513,9.513,0,0,0,3.568-2.136,10.9,10.9,0,0,0,2.151-2.7,10.923,10.923,0,0,0,1.172-3.254c.568-2.919.106-5.256-1.37-6.946-1.462-1.674-3.76-2.523-6.83-2.523M-75.589-30h2.951a7.124,7.124,0,0,0,4.37-1.105A5.869,5.869,0,0,0-66.33-34.8q.481-2.482-.439-3.5t-3.685-1.021h-3.324L-75.589-30m6.972-12.833q4.209,0,6.14,2.209t1.161,6.168a9.97,9.97,0,0,1-1.072,2.982A9.944,9.944,0,0,1-64.362-29a8.567,8.567,0,0,1-3.229,1.937,14.869,14.869,0,0,1-4.525.578h-4.155l-1.151,5.92h-4.851l4.328-22.267h9.328" transform="translate(83.189 43.75)" fill="#fff" />
          </g>
          <g id="g3492" transform="translate(35.266 8.547)">
            <path id="path3494" d="M-88.6-166.5a.458.458,0,0,1-.354-.167.457.457,0,0,1-.1-.379l1.914-9.852c.182-.937.137-1.609-.126-1.894-.161-.174-.646-.465-2.079-.465H-92.81l-2.407,12.386a.458.458,0,0,1-.45.371h-4.812a.458.458,0,0,1-.354-.167.458.458,0,0,1-.1-.379l4.328-22.267a.458.458,0,0,1,.45-.371h4.812a.458.458,0,0,1,.354.167.458.458,0,0,1,.1.379l-1.044,5.374H-88.2c2.842,0,4.77.5,5.892,1.532,1.144,1.052,1.5,2.733,1.061,5l-2.014,10.362a.458.458,0,0,1-.45.371Z" transform="translate(100.938 189.688)" />
          </g>
          <g id="g3496" transform="translate(34.808 8.088)">
            <path id="path3498" d="M-72.228,0h-4.812a.917.917,0,0,0-.9.742l-4.328,22.267a.916.916,0,0,0,.192.758.917.917,0,0,0,.707.334h4.812a.917.917,0,0,0,.9-.742l2.335-12.015h3.091c1.43,0,1.731.306,1.743.319.087.093.2.526.013,1.494l-1.914,9.852a.916.916,0,0,0,.193.758.917.917,0,0,0,.707.334H-64.6a.917.917,0,0,0,.9-.742L-61.688,13c.473-2.432.068-4.257-1.2-5.424-1.211-1.112-3.24-1.653-6.2-1.653h-3.175l.939-4.829a.917.917,0,0,0-.192-.758A.917.917,0,0,0-72.228,0m0,.917-1.151,5.92h4.287q4.046,0,5.582,1.411t.922,4.574L-64.6,23.184H-69.49l1.914-9.852a2.674,2.674,0,0,0-.24-2.293,3.382,3.382,0,0,0-2.415-.612h-3.846l-2.479,12.757h-4.812L-77.041.917h4.812" transform="translate(82.285 0)" fill="#fff" />
          </g>
          <g id="g3500" transform="translate(52.477 14.467)">
            <path id="path3502" d="M-72.485-92.167a6.737,6.737,0,0,0,4.09-1.01,5.466,5.466,0,0,0,1.768-3.415c.291-1.5.18-2.544-.329-3.109s-1.646-.869-3.345-.869h-2.946l-1.633,8.4Zm-9.634,10.351a.458.458,0,0,1-.354-.167.458.458,0,0,1-.1-.379l4.328-22.267a.459.459,0,0,1,.45-.371h9.327c2.932,0,5.113.8,6.485,2.366s1.8,3.784,1.265,6.557a10.476,10.476,0,0,1-1.122,3.118A10.44,10.44,0,0,1-63.9-90.372a9.056,9.056,0,0,1-3.4,2.036,15.388,15.388,0,0,1-4.667.6H-75.74l-1.078,5.549a.459.459,0,0,1-.45.371Z" transform="translate(82.578 105)" />
          </g>
          <g id="g3504" transform="translate(52.019 14.009)">
            <path id="path3506" d="M-73.021-38.4h2.568c2.05,0,2.763.45,3,.718.4.445.477,1.384.219,2.714a5.04,5.04,0,0,1-1.6,3.139,6.319,6.319,0,0,1-3.81.915h-1.838Zm4.4-5.347h-9.328a.917.917,0,0,0-.9.742l-4.328,22.267a.917.917,0,0,0,.192.758.917.917,0,0,0,.707.334h4.851a.917.917,0,0,0,.9-.742l1.006-5.178h3.4a15.835,15.835,0,0,0,4.809-.623,9.513,9.513,0,0,0,3.568-2.137,10.9,10.9,0,0,0,2.151-2.7,10.924,10.924,0,0,0,1.172-3.254c.568-2.919.106-5.256-1.37-6.946-1.462-1.674-3.76-2.523-6.83-2.523M-75.587-30h2.95a7.124,7.124,0,0,0,4.37-1.105A5.869,5.869,0,0,0-66.329-34.8q.482-2.482-.439-3.5t-3.685-1.021h-3.324L-75.587-30m6.971-12.833q4.209,0,6.14,2.209t1.161,6.168a9.971,9.971,0,0,1-1.072,2.982A9.945,9.945,0,0,1-64.361-29a8.568,8.568,0,0,1-3.229,1.937,14.869,14.869,0,0,1-4.525.578H-76.27l-1.15,5.92h-4.851l4.328-22.267h9.328" transform="translate(83.188 43.75)" fill="#fff" />
          </g>
        </g>
      </g>
    </g>
  </g>
</svg>
