<svg xmlns="http://www.w3.org/2000/svg" xmlns:xlink="http://www.w3.org/1999/xlink" width="88" height="58" viewBox="0 0 88 58">
  <defs>
    <linearGradient id="linear-gradient" x1="0.001" y1="1.34" x2="0.006" y2="1.34" gradientUnits="objectBoundingBox">
      <stop offset="0" stop-color="#387eb8" />
      <stop offset="1" stop-color="#366994" />
    </linearGradient>
    <linearGradient id="linear-gradient-2" x1="-0.346" y1="1.001" x2="-0.341" y2="1.001" gradientUnits="objectBoundingBox">
      <stop offset="0" stop-color="#ffe052" />
      <stop offset="1" stop-color="#ffc331" />
    </linearGradient>
  </defs>
  <g id="Group_34" data-name="Group 34" transform="translate(-683 -5633)">
    <rect id="Rectangle_34" data-name="Rectangle 34" width="88" height="58" transform="translate(683 5633)" fill="none" />
    <g id="python" transform="translate(699 5634)">
      <path id="パス_8" data-name="パス 8" d="M27.945,1.3c-14.291,0-13.4,6.2-13.4,6.2l.011,6.42H28.187v1.923H9.148S0,14.811,0,29.223,7.981,43.13,7.981,43.13h4.76V36.445s-.253-7.981,7.849-7.981H34.113s7.6.121,7.6-7.344V8.776C41.72,8.776,42.875,1.3,27.945,1.3ZM20.426,5.62a2.451,2.451,0,1,1-2.451,2.451A2.451,2.451,0,0,1,20.426,5.62Z" transform="translate(0 -1.3)" fill="url(#linear-gradient)" />
      <path id="パス_9" data-name="パス 9" d="M146.221,172.013c14.291,0,13.4-6.2,13.4-6.2l-.011-6.42H145.98v-1.924h19.051s9.148,1.033,9.148-13.379-7.984-13.907-7.984-13.907h-4.76v6.685s.253,7.981-7.849,7.981h-13.52s-7.6-.121-7.6,7.344v12.346C132.447,164.537,131.292,172.013,146.221,172.013Zm7.519-4.32a2.451,2.451,0,1,1,2.451-2.451,2.451,2.451,0,0,1-2.451,2.451Z" transform="translate(-117.88 -116.012)" fill="url(#linear-gradient-2)" />
    </g>
  </g>
</svg>
