<svg xmlns="http://www.w3.org/2000/svg" width="88" height="58" viewBox="0 0 88 58">
  <g id="Group_32" data-name="Group 32" transform="translate(-1240 -5633)">
    <rect id="Rectangle_36" data-name="Rectangle 36" width="88" height="58" transform="translate(1240 5633)" fill="none" />
    <g id="Layer_2_1_" transform="translate(1255 5634)">
      <g id="Surfaces" transform="translate(0 0)">
        <g id="UI_UX_Surface" transform="translate(0 0)">
          <g id="Outline_no_shadow">
            <path id="パス_40" data-name="パス 40" d="M10.171,6.3H47.265A10.158,10.158,0,0,1,57.436,16.471V52.129A10.158,10.158,0,0,1,47.265,62.3H10.171A10.158,10.158,0,0,1,0,52.129V16.471A10.158,10.158,0,0,1,10.171,6.3Z" transform="translate(0 -6.3)" fill="#470137" />
          </g>
        </g>
      </g>
      <g id="Outlined_Mnemonics_Logos" transform="translate(8.367 12.269)">
        <g id="Xd" transform="translate(0 0)">
          <path id="パス_41" data-name="パス 41" d="M94.661,131.659l-7.179,11.846,7.662,12.564a.427.427,0,0,1,.046.287c-.023.092-.115.023-.264.046h-5.48c-.379,0-.643-.023-.815-.264-.506-1.011-1.034-1.987-1.528-2.987-.506-.976-1.057-1.988-1.632-3.022s-1.149-2.056-1.724-3.111H83.7c-.506,1.034-1.057,2.056-1.609,3.091s-1.1,2.056-1.632,3.067c-.552,1.011-1.1,2.034-1.654,3.022-.092.239-.287.264-.552.264H73c-.092,0-.172.046-.172-.069a.347.347,0,0,1,.046-.264L80.322,143.9l-7.25-12.271c-.069-.092-.092-.2-.046-.239a.29.29,0,0,1,.239-.092H78.7a1.461,1.461,0,0,1,.333.046.617.617,0,0,1,.239.218c.459,1.034.976,2.056,1.528,3.091.574,1.034,1.126,2.034,1.724,3.045.574,1,1.1,2.011,1.609,3.045h.046c.506-1.057,1.034-2.08,1.551-3.091s1.08-2.011,1.632-3.022,1.08-2.034,1.609-3.01a.381.381,0,0,1,.15-.239.471.471,0,0,1,.311-.046h5.056a.222.222,0,0,1,.264.172.382.382,0,0,1-.092.15Z" transform="translate(-72.822 -129.208)" fill="#ff61f6" />
          <path id="パス_42" data-name="パス 42" d="M281.479,140.775a11.872,11.872,0,0,1-5.145-1.08,8.329,8.329,0,0,1-3.619-3.252,10.35,10.35,0,0,1-1.321-5.458,9.9,9.9,0,0,1,1.321-5.056,10,10,0,0,1,3.8-3.709,12.284,12.284,0,0,1,6.055-1.39,4.562,4.562,0,0,1,.506.023c.218.023.459.023.747.046v-7.561c0-.172.069-.264.239-.264h4.861a.217.217,0,0,1,.239.172v22.83c0,.437.023.908.046,1.436.046.506.069.976.092,1.39a.373.373,0,0,1-.239.379,18.189,18.189,0,0,1-3.906,1.149,20.751,20.751,0,0,1-3.678.345Zm2.344-4.791V125.448c-.218-.046-.437-.092-.643-.115-.264-.023-.528-.046-.793-.046a5.93,5.93,0,0,0-2.7.62,4.943,4.943,0,0,0-2.826,4.814,6.718,6.718,0,0,0,.4,2.47,4.72,4.72,0,0,0,1.08,1.7,4.032,4.032,0,0,0,1.632.954,6.2,6.2,0,0,0,1.988.31c.359,0,.689-.023,1.011-.046A2.157,2.157,0,0,0,283.823,135.984Z" transform="translate(-248.576 -113.072)" fill="#ff61f6" />
        </g>
      </g>
    </g>
  </g>
</svg>
