<svg xmlns="http://www.w3.org/2000/svg" width="36" height="36" viewBox="0 0 36 36">
  <path id="github" d="M21,3A18.227,18.227,0,0,0,3,21.457,18.412,18.412,0,0,0,15.308,38.968c.9.161,1.236-.394,1.236-.879,0-.437-.023-1.89-.023-3.437-4.522.855-5.692-1.13-6.052-2.169a6.721,6.721,0,0,0-1.844-2.607c-.63-.345-1.53-1.2-.023-1.222a3.606,3.606,0,0,1,2.768,1.891,3.793,3.793,0,0,0,5.242,1.522A3.919,3.919,0,0,1,17.761,29.6c-4.006-.461-8.19-2.054-8.19-9.114a7.29,7.29,0,0,1,1.844-4.961,6.788,6.788,0,0,1,.18-4.891s1.507-.484,4.95,1.894a16.558,16.558,0,0,1,9,0c3.442-2.4,4.95-1.89,4.95-1.89a6.788,6.788,0,0,1,.18,4.891,7.242,7.242,0,0,1,1.844,4.959c0,7.084-4.207,8.652-8.212,9.114a4.431,4.431,0,0,1,1.216,3.414c0,2.468-.023,4.452-.023,5.076,0,.484.338,1.059,1.238.875A18.455,18.455,0,0,0,39,21.457,18.227,18.227,0,0,0,21,3Z" transform="translate(-3 -3)" fill-rule="evenodd" fill="#aaa" />
</svg>
