<svg xmlns="http://www.w3.org/2000/svg" width="36" height="36" viewBox="0 0 36 36">
  <g id="グループ_48" data-name="グループ 48" transform="translate(-564 -4679)" fill="#aaa">
    <path id="twitter_icon" data-name="twitter" d="M42,137a17.944,17.944,0,1,1,7.006-1.414A17.888,17.888,0,0,1,42,137Zm-12-9.7a10.767,10.767,0,0,0,5.66,2.189c.673.065,1.34.1,1.982.1a14.759,14.759,0,0,0,7.438-1.819,15.174,15.174,0,0,0,6.018-7.477,15.021,15.021,0,0,0,1.06-5.743c-.009-.134-.023-.273-.041-.413a6.827,6.827,0,0,0,1.666-1.4,6.664,6.664,0,0,0,.923-1.321,14.452,14.452,0,0,1-3,.908,4.94,4.94,0,0,0,2.259-2.92,8.271,8.271,0,0,1-3.278,1.211,4.682,4.682,0,0,0-4.71-1.459,5.314,5.314,0,0,0-3.181,2.313,6.14,6.14,0,0,0-.62,3.91,12.129,12.129,0,0,1-4.612-.964A17.154,17.154,0,0,1,31.68,110a6.709,6.709,0,0,0-.62,3.291,5.994,5.994,0,0,0,2.245,3.649l-.028,0h-.065a5.065,5.065,0,0,1-2.193-.69,5.781,5.781,0,0,0,.578,2.534,5.722,5.722,0,0,0,3.443,2.672,10.106,10.106,0,0,1-1.212.166c-.166.013-.3.019-.426.019a2.546,2.546,0,0,1-.648-.074,6.322,6.322,0,0,0,1.784,2.491,4.449,4.449,0,0,0,2.891,1.063h.118a10.741,10.741,0,0,1-6.414,2.244A9.59,9.59,0,0,1,30,127.3Z" transform="translate(540 4578)" />
  </g>
</svg>
